<?xml version="1.0" encoding="UTF-8"?>
<svg version="1.1" xmlns="http://www.w3.org/2000/svg" width="1280" height="1024">
<path d="M0 0 C9.20685035 8.67470108 17.43045011 17.53193082 24.14013672 28.27734375 C24.53281738 28.9007666 24.92549805 29.52418945 25.33007812 30.16650391 C32.77160834 42.16887469 37.35270196 54.7306585 41.14013672 68.27734375 C44.11013672 68.60734375 47.08013672 68.93734375 50.14013672 69.27734375 C50.14013672 84.12734375 50.14013672 98.97734375 50.14013672 114.27734375 C47.17013672 114.27734375 44.20013672 114.27734375 41.14013672 114.27734375 C40.99318359 114.96957031 40.84623047 115.66179687 40.69482422 116.375 C32.2428885 153.24292648 6.64659709 183.40426597 -24.85986328 203.27734375 C-30.08449765 206.48487244 -35.42825995 209.43683014 -40.85986328 212.27734375 C-41.49375977 212.61330566 -42.12765625 212.94926758 -42.78076172 213.29541016 C-77.13709801 231.2619695 -116.0979612 237.73689891 -154.48486328 237.58984375 C-155.49899292 237.5876886 -156.51312256 237.58553345 -157.5579834 237.58331299 C-172.51672186 237.53232466 -187.14225998 237.2057266 -201.85986328 234.27734375 C-203.41809814 233.97135254 -203.41809814 233.97135254 -205.0078125 233.65917969 C-250.80619245 224.39567696 -296.819756 204.34121318 -325.85986328 166.27734375 C-326.51341797 165.46265625 -327.16697266 164.64796875 -327.84033203 163.80859375 C-338.78584049 149.65152892 -347.6581766 132.16321083 -349.85986328 114.27734375 C-352.49986328 114.27734375 -355.13986328 114.27734375 -357.85986328 114.27734375 C-357.85986328 99.42734375 -357.85986328 84.57734375 -357.85986328 69.27734375 C-355.21986328 69.27734375 -352.57986328 69.27734375 -349.85986328 69.27734375 C-349.78509766 68.74109375 -349.71033203 68.20484375 -349.63330078 67.65234375 C-344.25641111 35.60186415 -320.91412499 6.86070188 -295.17236328 -11.72265625 C-218.56783765 -65.66103502 -101.34752704 -70.05987026 0 0 Z M-293.85986328 -5.72265625 C-295.26558594 -4.64951172 -295.26558594 -4.64951172 -296.69970703 -3.5546875 C-319.8668312 14.69316209 -338.9812493 39.88427382 -344.85986328 69.27734375 C-335.28986328 69.27734375 -325.71986328 69.27734375 -315.85986328 69.27734375 C-313.38486328 63.83234375 -313.38486328 63.83234375 -310.85986328 58.27734375 C-294.65520821 25.28483265 -264.00555781 5.08329318 -230.19238281 -6.94238281 C-221.07721597 -10.05200319 -211.9062475 -12.59883509 -202.48486328 -14.59765625 C-201.58421143 -14.78875977 -200.68355957 -14.97986328 -199.75561523 -15.17675781 C-184.8490806 -18.11303472 -169.90016626 -19.10954667 -154.73486328 -19.03515625 C-153.93415405 -19.0330011 -153.13344482 -19.03084595 -152.30847168 -19.02862549 C-105.52949203 -18.82794197 -56.95659039 -5.98709873 -21.85986328 26.27734375 C-20.96525391 27.08945312 -20.07064453 27.9015625 -19.14892578 28.73828125 C-7.37002637 39.93729638 1.01785823 53.91050828 6.14013672 69.27734375 C15.71013672 69.27734375 25.28013672 69.27734375 35.14013672 69.27734375 C29.16101654 39.38174285 10.34302426 13.48682342 -13.85986328 -4.72265625 C-14.90529297 -5.521875 -15.95072266 -6.32109375 -17.02783203 -7.14453125 C-90.36400426 -62.07967941 -202.58248566 -61.70726119 -293.85986328 -5.72265625 Z M-352.85986328 74.27734375 C-352.85986328 85.82734375 -352.85986328 97.37734375 -352.85986328 109.27734375 C-335.36986328 109.27734375 -317.87986328 109.27734375 -299.85986328 109.27734375 C-299.85986328 97.72734375 -299.85986328 86.17734375 -299.85986328 74.27734375 C-317.34986328 74.27734375 -334.83986328 74.27734375 -352.85986328 74.27734375 Z M-7.85986328 74.27734375 C-7.85986328 85.82734375 -7.85986328 97.37734375 -7.85986328 109.27734375 C9.63013672 109.27734375 27.12013672 109.27734375 45.14013672 109.27734375 C45.14013672 97.72734375 45.14013672 86.17734375 45.14013672 74.27734375 C27.65013672 74.27734375 10.16013672 74.27734375 -7.85986328 74.27734375 Z M-344.85986328 114.27734375 C-342.36558742 124.5223687 -342.36558742 124.5223687 -338.67236328 134.15234375 C-338.37120605 134.82160889 -338.07004883 135.49087402 -337.75976562 136.18041992 C-332.49918365 147.63238535 -326.22862007 157.78892482 -317.85986328 167.27734375 C-317.13927734 168.11910156 -316.41869141 168.96085937 -315.67626953 169.828125 C-296.33793002 191.99310237 -271.12807391 206.88123052 -243.85986328 217.27734375 C-243.14427246 217.55030273 -242.42868164 217.82326172 -241.69140625 218.10449219 C-200.59072876 233.44495267 -152.01703814 237.67488494 -108.85986328 229.27734375 C-107.82732422 229.07866699 -106.79478516 228.87999023 -105.73095703 228.67529297 C-68.19771606 221.21002529 -32.24584907 206.44783797 -3.85986328 180.27734375 C-3.35793457 179.81924316 -2.85600586 179.36114258 -2.33886719 178.88916016 C15.29770846 162.61054991 29.16219416 141.68570828 35.14013672 118.27734375 C35.14013672 117.28734375 35.14013672 116.29734375 35.14013672 115.27734375 C25.57013672 115.27734375 16.00013672 115.27734375 6.14013672 115.27734375 C5.29451172 117.52546875 4.44888672 119.77359375 3.57763672 122.08984375 C-8.27068611 152.24297624 -35.92892221 173.25946354 -64.85986328 185.90234375 C-82.56391803 193.37290614 -100.88033747 198.38094576 -119.85986328 201.27734375 C-120.97796387 201.45305908 -120.97796387 201.45305908 -122.11865234 201.63232422 C-174.118095 209.44733648 -232.90168094 199.04658871 -275.80810547 167.81396484 C-294.65849096 153.69636296 -307.57153578 136.37955042 -315.85986328 114.27734375 C-325.42986328 114.27734375 -334.99986328 114.27734375 -344.85986328 114.27734375 Z M-309.85986328 114.27734375 C-309.52986328 115.59734375 -309.19986328 116.91734375 -308.85986328 118.27734375 C-307.1749003 117.30849003 -305.50807572 116.30747652 -303.85986328 115.27734375 C-303.85986328 114.94734375 -303.85986328 114.61734375 -303.85986328 114.27734375 C-305.83986328 114.27734375 -307.81986328 114.27734375 -309.85986328 114.27734375 Z M-3.85986328 114.27734375 C-2.86986328 115.26734375 -1.87986328 116.25734375 -0.85986328 117.27734375 C-0.19986328 116.94734375 0.46013672 116.61734375 1.14013672 116.27734375 C1.14013672 115.61734375 1.14013672 114.95734375 1.14013672 114.27734375 C-0.50986328 114.27734375 -2.15986328 114.27734375 -3.85986328 114.27734375 Z " fill="#4A90E6" transform="translate(793.85986328125,306.72265625)"/>
<path d="M0 0 C5.61925232 -0.09982274 11.23797418 -0.1719136 16.85791016 -0.21972656 C18.76457729 -0.23968492 20.67118448 -0.2668616 22.57763672 -0.30175781 C47.43461983 -0.74493423 47.43461983 -0.74493423 58 7.75 C61.77695801 11.43816876 64.23418482 15.03425456 66 20 C66.22300781 20.62519531 66.44601562 21.25039063 66.67578125 21.89453125 C69.70868413 32.0248395 68.58873168 43.22927894 63.875 52.625 C59.05898967 60.67040502 52.04792737 65.63967112 43 68 C34.20523544 69.4134443 25.3185879 69.1112517 16.4375 69.0625 C14.84049619 69.05747543 13.24349086 69.05291421 11.64648438 69.04882812 C7.76428467 69.03789728 3.88215949 69.02068533 0 69 C0.33 68.01 0.66 67.02 1 66 C3.475 65.01 3.475 65.01 6 64 C6 44.2 6 24.4 6 4 C4.02 3.34 2.04 2.68 0 2 C0 1.34 0 0.68 0 0 Z M22 4 C22 23.8 22 43.6 22 64 C34.73150202 65.0226811 34.73150202 65.0226811 44 60 C50.77546376 53.11223574 52.14916087 43.94796528 52.4375 34.625 C52.21746869 25.23061964 50.57611688 15.21436593 43.6796875 8.30078125 C36.92145132 3.06707742 30.75771442 4 22 4 Z " fill="#4A91E7" transform="translate(596,608)"/>
<path d="M0 0 C5.35272952 -0.09977129 10.70490357 -0.1718895 16.05834961 -0.21972656 C17.87485193 -0.23969343 19.69129121 -0.26687687 21.50756836 -0.30175781 C44.63182351 -0.7343436 44.63182351 -0.7343436 51.72241211 5.51904297 C55.89779999 10.29984393 56.46256331 14.00028234 56.4140625 20.16796875 C55.74927582 24.71485879 53.46015606 27.14231817 50 30 C45.74193548 33 45.74193548 33 43 33 C43 33.66 43 34.32 43 35 C44.051875 35.061875 45.10375 35.12375 46.1875 35.1875 C50.66337256 36.14137448 52.12282867 37.53046987 55 41 C56.23920252 43.47840505 56.30731035 45.46203224 56.53515625 48.2265625 C56.66567383 49.7734375 56.66567383 49.7734375 56.79882812 51.3515625 C56.9293457 52.97191406 56.9293457 52.97191406 57.0625 54.625 C57.15337891 55.71296875 57.24425781 56.8009375 57.33789062 57.921875 C57.56225951 60.61430157 57.78280114 63.30698709 58 66 C59.65 66 61.3 66 63 66 C63.495 64.515 63.495 64.515 64 63 C65.485 63.495 65.485 63.495 67 64 C65.125 67.875 65.125 67.875 64 69 C50.26947454 70.02144109 50.26947454 70.02144109 45 66 C41.45764727 61.16562973 41.56937735 56.97445869 41.40625 51.15625 C40.9568751 47.66495271 40.0933603 45.80431285 38 43 C34.46569344 40.64379563 33.16428713 40.51008387 29 41 C24.77518254 43.2758823 24.77518254 43.2758823 22 47 C21.92805131 49.88370333 21.90708292 52.74239664 21.9375 55.625 C21.94201172 56.42679688 21.94652344 57.22859375 21.95117188 58.0546875 C21.96296832 60.03649006 21.98090395 62.01825433 22 64 C24.31 64.99 26.62 65.98 29 67 C29 67.66 29 68.32 29 69 C19.43 69 9.86 69 0 69 C0 68.34 0 67.68 0 67 C2.97 66.01 2.97 66.01 6 65 C6 44.87 6 24.74 6 4 C4.02 3.34 2.04 2.68 0 2 C0 1.34 0 0.68 0 0 Z M21 8 C20.30769504 11.28506284 20.30769504 11.28506284 20.51171875 15.07421875 C20.51879349 15.7580513 20.52586823 16.44188385 20.53315735 17.1464386 C20.56111996 19.32791159 20.62384936 21.50680494 20.6875 23.6875 C20.71258103 25.1672806 20.73539456 26.64710149 20.75585938 28.12695312 C20.81094865 31.75213863 20.89722892 35.37581753 21 39 C22.75198842 38.06491394 24.50151176 37.12520845 26.25 36.18359375 C27.22453125 35.66079834 28.1990625 35.13800293 29.203125 34.59936523 C35.58239612 30.9514423 39.97966457 27.32371592 42 20 C42.18281916 15.83490272 41.43883568 12.69608418 39.1875 9.125 C35.89774988 5.92924274 34.16938985 5.10630817 29.5625 4.6875 C25.64678244 5.030984 24.00255181 5.49866756 21 8 Z " fill="#4A91E7" transform="translate(764,608)"/>
<path d="M0 0 C6.65626462 5.42684261 12.01115773 12.79113718 12.93994141 21.54077148 C13.58649243 34.34110613 13.00167733 44.72575775 4.46875 54.89453125 C-2.1755846 61.79062812 -9.01163496 64.52137304 -18.52587891 64.74975586 C-29.78797517 64.84331789 -38.06937445 63.46439288 -46.52734375 55.43359375 C-53.39171933 47.6977941 -55.83394832 38.07922246 -55.52734375 27.87109375 C-54.42903674 17.09722497 -50.88150495 8.45147849 -42.84375 1.08203125 C-30.98369511 -8.36935907 -12.39725391 -8.38512893 0 0 Z M-34.734375 5.296875 C-40.56132005 14.28845401 -40.23967192 24.4556779 -38.8203125 34.82421875 C-36.94622808 43.31271875 -33.70558977 51.57539178 -26.21875 56.51953125 C-21.79596921 58.88169827 -18.87895462 59.68942465 -13.84375 58.95703125 C-8.20534777 56.58296715 -5.38340676 52.91183495 -2.90625 47.39453125 C-0.56545232 32.64750585 -3.04960515 19.24961602 -11.03125 6.70703125 C-14.85035418 2.88792707 -19.05616089 0.76854373 -24.40625 0.01953125 C-28.77428761 0.68423263 -31.91887019 1.73208262 -34.734375 5.296875 Z " fill="#4A91E7" transform="translate(736.28125,612.54296875)"/>
<path d="M0 0 C0.17042816 0.72231812 0.34085632 1.44463623 0.51644897 2.18884277 C2.33989706 9.72005814 4.53366414 17.05505867 6.9765625 24.40625 C7.34727875 25.53397827 7.717995 26.66170654 8.09994507 27.8236084 C9.27096549 31.38373763 10.44767595 34.94195094 11.625 38.5 C12.8084579 42.08693582 13.99070039 45.67426603 15.17147827 49.26208496 C15.90311558 51.48410788 16.63646829 53.70556688 17.37173462 55.9263916 C17.7023288 56.92843628 18.03292297 57.93048096 18.37353516 58.96289062 C18.6642691 59.84158813 18.95500305 60.72028564 19.25454712 61.62561035 C19.91791081 63.73853248 20.49070719 65.84546474 21 68 C24.75658595 60.70458595 28.22098821 53.29737669 31.50415039 45.77709961 C32.04516663 44.54588326 32.5930884 43.31767933 33.14770508 42.0925293 C36.94007716 33.70874582 39.64391067 27.25019844 37.23046875 18.07421875 C36.88628906 17.28660156 36.54210937 16.49898438 36.1875 15.6875 C35.85105469 14.88699219 35.51460937 14.08648437 35.16796875 13.26171875 C33.98019311 10.96164485 32.61295851 9.01966438 31 7 C31.72703125 6.91363281 32.4540625 6.82726562 33.203125 6.73828125 C40.21487235 5.7584345 46.15617931 3.95008131 52.6015625 1.0234375 C55 0 55 0 57 0 C55.58698062 4.50961801 53.82522471 8.76991927 51.83203125 13.046875 C51.18617233 14.44774211 50.5403402 15.84862157 49.89453125 17.24951172 C49.55502441 17.98296814 49.21551758 18.71642456 48.86572266 19.47210693 C47.06340826 23.3701236 45.27597551 27.27494912 43.48828125 31.1796875 C43.11990143 31.98419342 42.75152161 32.78869934 42.37197876 33.61758423 C38.71553482 41.60995307 35.08035952 49.61149073 31.50009155 57.63830566 C30.83617839 59.12314053 30.16890631 60.60647831 29.49819946 62.08825684 C28.56276898 64.15653417 27.63931409 66.22975918 26.71875 68.3046875 C26.19216797 69.48015137 25.66558594 70.65561523 25.12304688 71.86669922 C24.03945194 74.88992908 23.96428103 76.851922 24 80 C21.6875 82.5 21.6875 82.5 19 85 C18.54625 85.928125 18.0925 86.85625 17.625 87.8125 C17.08875 88.534375 16.5525 89.25625 16 90 C12.3984375 90.13671875 12.3984375 90.13671875 9 90 C8.40312378 88.15607666 8.40312378 88.15607666 7.79418945 86.27490234 C6.29597612 81.6484022 4.79498304 77.02280763 3.29321289 72.39746094 C2.64761525 70.40779233 2.0027393 68.41788937 1.35864258 66.42773438 C-1.95380646 56.19440309 -5.31290039 45.99932145 -8.9831543 35.88818359 C-10.34866406 32.00967686 -11.47655294 28.08877918 -12.5625 24.125 C-14.93220842 15.68824312 -14.93220842 15.68824312 -19 8 C-22.08601755 6.41150153 -22.08601755 6.41150153 -25 6 C-25 5.67 -25 5.34 -25 5 C-23.38931641 4.83564453 -23.38931641 4.83564453 -21.74609375 4.66796875 C-20.3098322 4.50838413 -18.87363767 4.34819558 -17.4375 4.1875 C-16.73302734 4.11724609 -16.02855469 4.04699219 -15.30273438 3.97460938 C-10.14028378 3.379857 -4.86497833 0 0 0 Z " fill="#07182C" transform="translate(627,328)"/>
<path d="M0 0 C2.41016019 2.41016019 2.89357695 4.27835642 4 7.5 C6.50562846 14.23901862 9.8295802 20.28418916 13.39404297 26.51513672 C16.4379756 31.8734263 18.93472125 37.17966898 21 43 C21 36.07 21 29.14 21 22 C23.99431292 24.99431292 24.79259269 28.60034142 26.125 32.5625 C26.40214844 33.33658203 26.67929687 34.11066406 26.96484375 34.90820312 C29.13152563 41.31752562 30.1787816 47.46365519 28 54 C28.95298777 55.36733028 29.95374591 56.70264493 31 58 C31 58.66 31 59.32 31 60 C31.66 60 32.32 60 33 60 C33 52.08 33 44.16 33 36 C38.46096323 44.19144485 39.61303692 54.37872616 39 64 C39 64.99 39 65.98 39 67 C41.4390706 69.20142332 41.4390706 69.20142332 44 71 C43.93941406 70.43603516 43.87882813 69.87207031 43.81640625 69.29101562 C43.53994962 66.69444994 43.26993901 64.09725103 43 61.5 C42.85691406 60.1696875 42.85691406 60.1696875 42.7109375 58.8125 C42.16485054 53.50765526 41.9003247 48.33262848 42 43 C45.14691241 46.54373714 46.38113018 50.5365698 47.6875 55 C47.9153418 55.75385986 48.14318359 56.50771973 48.37792969 57.28442383 C49.69590193 61.94736997 50.14798219 65.80762603 49.75 70.6875 C49.47311962 73.47722582 49.47311962 73.47722582 50 76 C52.65458329 78.76432 55.52566928 80.42827896 59 82 C58.72285156 81.04480469 58.44570313 80.08960938 58.16015625 79.10546875 C55.98020433 71.3946388 54.3348295 64.0526495 54 56 C58.04395227 59.63801551 59.87557033 64.41506576 62.1875 69.25 C62.65091797 70.17941406 63.11433594 71.10882813 63.59179688 72.06640625 C66.1121024 77.31487756 67.62068787 81.16392182 67 87 C70.63 87.99 74.26 88.98 78 90 C74.20880407 80.95945585 70.39946578 72.22775738 65 64 C73.58935548 67.47523348 81.83716008 78.90346732 86 87 C86.495 90.465 86.495 90.465 87 94 C103.335 94.99 103.335 94.99 120 96 C120 96.33 120 96.66 120 97 C116.20840036 97.05886171 112.41692081 97.09388224 108.625 97.125 C107.56410156 97.14175781 106.50320313 97.15851563 105.41015625 97.17578125 C98.68730739 97.21702572 92.52888452 96.62170836 86 95 C85.72414063 95.62648438 85.44828125 96.25296875 85.1640625 96.8984375 C82.92490086 100.94095079 78.65278226 101.80409382 74.43359375 103.0703125 C69.51778242 104.26253801 64.72358285 104.2946 59.6875 104.25 C58.34848633 104.26160156 58.34848633 104.26160156 56.98242188 104.2734375 C56.12583984 104.27085937 55.26925781 104.26828125 54.38671875 104.265625 C53.61545654 104.26336914 52.84419434 104.26111328 52.04956055 104.25878906 C50 104 50 104 47 102 C48.00417969 101.84144531 49.00835938 101.68289063 50.04296875 101.51953125 C58.30619651 100.13606737 65.68853104 98.27928228 73.42578125 94.98828125 C76 94 76 94 79 94 C79 93.34 79 92.68 79 92 C78.195625 91.9175 77.39125 91.835 76.5625 91.75 C72.04065795 90.79803325 68.15297299 88.98419821 64 87 C63.95875 87.598125 63.9175 88.19625 63.875 88.8125 C63 91 63 91 60.4140625 92.72265625 C49.30274114 96.87986687 37.30963953 93.74717707 26.9296875 89.06640625 C25.59862713 88.419449 24.29371597 87.7187311 23 87 C26.43820726 85.85393091 27.51834229 86.29211109 31 87 C33.74195196 87.11945687 36.44616011 87.18992409 39.1875 87.1875 C40.31273071 87.1884668 40.31273071 87.1884668 41.46069336 87.18945312 C47.14795534 87.135528 52.49951109 86.51364805 58 85 C54.80009492 82.25722422 51.99500618 80.3697164 48 79 C47.34 79.66 46.68 80.32 46 81 C32.74484969 83.17861467 18.67905499 77.47020433 8 70 C10.82221788 68.58889106 12.20255104 69.47745673 15.1875 70.375 C24.23458425 72.93483392 32.63306425 73.1169243 42 73 C39.69 70.69 37.38 68.38 35 66 C34.01 66.495 34.01 66.495 33 67 C22.21849173 67.32530413 14.18505025 61.65763354 6.6171875 54.57421875 C5.81667969 53.79498047 5.81667969 53.79498047 5 53 C5.99 52.505 5.99 52.505 7 52 C9.06784527 52.72052399 11.10602806 53.52712547 13.125 54.375 C18.21791029 56.41555562 22.5402943 57.67884084 28 58 C27.34 57.01 26.68 56.02 26 55 C24.989375 54.9175 23.97875 54.835 22.9375 54.75 C14.44906891 53.8518465 7.55489524 44.82734242 2 39 C2.33 38.34 2.66 37.68 3 37 C8.28 39.64 13.56 42.28 19 45 C18.34 43.02 17.68 41.04 17 39 C15.67511887 38.63451555 14.33981486 38.3062434 13 38 C8.9126529 33.73579654 6.74286498 29.72626394 4.8125 24.1875 C4.55839355 23.48117432 4.30428711 22.77484863 4.04248047 22.04711914 C1.45611981 14.71348085 -0.33343477 7.83571719 0 0 Z " fill="#0A1D35" transform="translate(515,382)"/>
<path d="M0 0 C18.48 0 36.96 0 56 0 C55.34 1.65 54.68 3.3 54 5 C53.45375697 6.43576724 52.91170979 7.87314194 52.375 9.3125 C51.92125 10.529375 51.4675 11.74625 51 13 C44.67230301 12.76564085 41.0374606 11.12760708 35.8828125 7.47265625 C32.0154383 5.33259568 32.0154383 5.33259568 23 4 C23.33 13.24 23.66 22.48 24 32 C25.65 30.02 27.3 28.04 29 26 C34.87199001 21.98431651 42.20499874 22.69422494 49 23 C49 23.66 49 24.32 49 25 C48.236875 25.7425 47.47375 26.485 46.6875 27.25 C43.97366049 30.02695205 42.55797703 32.47405199 41 36 C40.19175781 35.96519531 39.38351562 35.93039062 38.55078125 35.89453125 C36.94783203 35.85392578 36.94783203 35.85392578 35.3125 35.8125 C34.25675781 35.77769531 33.20101562 35.74289062 32.11328125 35.70703125 C28.49832987 36.04720861 26.84855003 36.7670967 24 39 C23.22098686 41.68827386 23.22098686 41.68827386 23.29296875 44.76171875 C23.24946289 46.43911133 23.24946289 46.43911133 23.20507812 48.15039062 C23.19927734 49.31763672 23.19347656 50.48488281 23.1875 51.6875 C23.16236328 52.86634766 23.13722656 54.04519531 23.11132812 55.25976562 C23.0523454 58.173512 23.01614629 61.08575228 23 64 C26.56341281 63.9188401 30.12514956 63.80602139 33.6875 63.6875 C35.19860352 63.65366211 35.19860352 63.65366211 36.74023438 63.61914062 C43.92252773 63.48283368 43.92252773 63.48283368 50 60 C51.6337717 57.77706054 51.6337717 57.77706054 52.8125 55.3125 C53.23144531 54.50425781 53.65039062 53.69601562 54.08203125 52.86328125 C54.38496094 52.24839844 54.68789063 51.63351562 55 51 C55.99 51 56.98 51 58 51 C57.5422281 52.68765239 57.0837511 54.37511352 56.625 56.0625 C56.24214844 57.47208984 56.24214844 57.47208984 55.8515625 58.91015625 C54.92295489 62.2795536 53.96015528 65.63945652 53 69 C35.51 69 18.02 69 0 69 C0 68.34 0 67.68 0 67 C1.4540625 66.5978125 1.4540625 66.5978125 2.9375 66.1875 C4.4534375 65.5996875 4.4534375 65.5996875 6 65 C7.02653119 61.92040643 7.13270127 59.79326723 7.14526367 56.56640625 C7.15164352 55.45515381 7.15802338 54.34390137 7.16459656 53.19897461 C7.16626579 51.39891968 7.16626579 51.39891968 7.16796875 49.5625 C7.17129715 48.33088135 7.17462555 47.0992627 7.17805481 45.83032227 C7.18312087 43.22445042 7.18546323 40.61857208 7.18530273 38.01269531 C7.18522123 35.3374967 7.19219918 32.6624684 7.20581055 29.98730469 C7.2240693 26.13731618 7.22903635 22.28752738 7.23046875 18.4375 C7.23765427 17.23746338 7.24483978 16.03742676 7.25224304 14.80102539 C7.24916641 13.68977295 7.24608978 12.57852051 7.24291992 11.43359375 C7.24434494 10.45447021 7.24576996 9.47534668 7.24723816 8.46655273 C7.16924138 5.74583444 7.16924138 5.74583444 5 3 C2.43717258 2.27034634 2.43717258 2.27034634 0 2 C0 1.34 0 0.68 0 0 Z " fill="#4B91E6" transform="translate(442,608)"/>
<path d="M0 0 C0.886875 0.144375 1.77375 0.28875 2.6875 0.4375 C5.82823909 7.22743822 8.51466035 14.13622498 11.09375 21.15625 C11.50032837 22.2541687 11.90690674 23.3520874 12.32580566 24.48327637 C14.0508031 29.14171314 15.76898577 33.80265536 17.48779297 38.46337891 C18.74991296 41.88271573 20.01550641 45.30075322 21.28125 48.71875 C21.66365845 49.75962769 22.04606689 50.80050537 22.44006348 51.8729248 C24.14375455 56.47261034 25.88664957 61.05147011 27.79101562 65.57226562 C28.09060181 66.28370728 28.39018799 66.99514893 28.69885254 67.72814941 C29.66527797 69.7312379 29.66527797 69.7312379 32.4375 71 C33.18 71.144375 33.9225 71.28875 34.6875 71.4375 C34.6875 72.0975 34.6875 72.7575 34.6875 73.4375 C20.8275 72.9425 20.8275 72.9425 6.6875 72.4375 C6.6875 71.7775 6.6875 71.1175 6.6875 70.4375 C8.3375 70.4375 9.9875 70.4375 11.6875 70.4375 C9.74336927 62.11525617 6.7348397 56.25356315 0.5 50.375 C-4.08960604 48.84513132 -8.59091213 49.75117462 -13.3125 50.4375 C-13.9725 49.1175 -14.6325 47.7975 -15.3125 46.4375 C-19.00516229 54.23312039 -21.67748065 62.24086195 -24.3125 70.4375 C-23.3225 70.7675 -22.3325 71.0975 -21.3125 71.4375 C-21.3125 72.0975 -21.3125 72.7575 -21.3125 73.4375 C-26.9225 73.4375 -32.5325 73.4375 -38.3125 73.4375 C-38.3125 72.7775 -38.3125 72.1175 -38.3125 71.4375 C-36.50458984 71.128125 -36.50458984 71.128125 -34.66015625 70.8125 C-31.41199609 69.59202262 -30.44529851 68.66990744 -28.69873047 65.61328125 C-27.48739796 62.57367485 -26.37734665 59.53002837 -25.3815918 56.41308594 C-24.74846658 54.43270353 -24.07321762 52.47094548 -23.38867188 50.5078125 C-20.78254363 44.03251175 -20.78254363 44.03251175 -21.3125 37.4375 C-20.3225 37.4375 -19.3325 37.4375 -18.3125 37.4375 C-18.15394531 36.86644531 -17.99539063 36.29539062 -17.83203125 35.70703125 C-16.0350019 29.46210606 -13.82072875 23.46018286 -11.43359375 17.41796875 C-10.56856626 15.11826151 -9.87441754 12.94396004 -9.3125 10.5625 C-7.64510955 5.35190486 -5.7608596 0.76086825 0 0 Z M-7.3125 19.4375 C-8.31649524 22.06103518 -9.31584445 24.68617795 -10.3125 27.3125 C-10.59867188 28.05886719 -10.88484375 28.80523438 -11.1796875 29.57421875 C-12.74586648 33.39735011 -12.74586648 33.39735011 -13.3125 37.4375 C-12.72082031 37.53546875 -12.12914062 37.6334375 -11.51953125 37.734375 C-4.70172253 39.0245313 -1.16712789 41.56900175 3.6875 46.4375 C1.12446551 37.28701721 -2.10781223 28.37743804 -5.3125 19.4375 C-5.9725 19.4375 -6.6325 19.4375 -7.3125 19.4375 Z " fill="#4A91E7" transform="translate(879.3125,603.5625)"/>
<path d="M0 0 C17.80282988 -2.98648396 17.80282988 -2.98648396 24.19042969 1.55859375 C28.32482468 5.92942246 31.30750293 11.07327727 34.32617188 16.24853516 C37.15295012 20.89523743 40.46966211 25.1678512 43.75 29.5 C44.9143218 31.07079822 46.0760025 32.64355939 47.234375 34.21875 C47.72131836 34.87810547 48.20826172 35.53746094 48.70996094 36.21679688 C49.84422897 37.78467986 50.92656969 39.38985454 52 41 C52 28.46 52 15.92 52 3 C49.69 2.67 47.38 2.34 45 2 C45 1.34 45 0.68 45 0 C51.6 0 58.2 0 65 0 C65 0.66 65 1.32 65 2 C63.02 2.66 61.04 3.32 59 4 C58.89826052 10.42279472 58.82839254 16.84538025 58.78027344 23.26879883 C58.76020561 25.45214606 58.73294495 27.63543986 58.69824219 29.81860352 C58.64951218 32.96383885 58.62698245 36.1083612 58.609375 39.25390625 C58.58872986 40.2239711 58.56808472 41.19403595 58.54681396 42.1934967 C58.54531456 46.76144551 58.67791099 50.01261053 61.12988281 53.94506836 C61.74702148 54.9531958 62.36416016 55.96132324 63 57 C61.3125 60.625 61.3125 60.625 60.09765625 62.35546875 C58.68055586 64.4785978 58.30434115 66.48918553 58 69 C54.86644345 67.65531605 53.23274399 66.36227498 51.29296875 63.5703125 C50.79659912 62.8676123 50.30022949 62.16491211 49.78881836 61.44091797 C48.99616577 60.29453857 48.99616577 60.29453857 48.1875 59.125 C47.02777485 57.48314939 45.8662474 55.84257068 44.703125 54.203125 C44.09791016 53.34783203 43.49269531 52.49253906 42.86914062 51.61132812 C39.79359286 47.31455972 36.61796641 43.09439948 33.4375 38.875 C32.87377686 38.12621582 32.31005371 37.37743164 31.72924805 36.60595703 C29.81970636 34.07048161 27.90983942 31.53525116 26 29 C22.04 23.72 18.08 18.44 14 13 C13.67 30.16 13.34 47.32 13 65 C15.31 65.66 17.62 66.32 20 67 C20 67.66 20 68.32 20 69 C13.4 69 6.8 69 0 69 C0 68.34 0 67.68 0 67 C2.31 66.01 4.62 65.02 7 64 C7 43.87 7 23.74 7 3 C4.69 2.67 2.38 2.34 0 2 C0 1.34 0 0.68 0 0 Z " fill="#4A91E7" transform="translate(515,608)"/>
<path d="M0 0 C2.28853445 2.28853445 2.72648097 3.75507482 3.69580078 6.81689453 C4.01598175 7.81778107 4.33616272 8.8186676 4.66604614 9.84988403 C5.00570404 10.93325043 5.34536194 12.01661682 5.6953125 13.1328125 C6.04761932 14.23978485 6.39992615 15.3467572 6.76290894 16.48727417 C7.88939479 20.03137605 9.00728112 23.57812462 10.125 27.125 C10.8861549 29.52491849 11.64786654 31.92466047 12.41015625 34.32421875 C14.27990814 40.21411125 16.14260242 46.10620064 18 52 C21.79885779 48.20114221 23.46016373 42.73214534 25.625 37.875 C26.140625 36.75867188 26.65625 35.64234375 27.1875 34.4921875 C30.25722526 27.60560808 32.74129645 22.02951208 30.16015625 14.57421875 C29.61681641 13.64029297 29.61681641 13.64029297 29.0625 12.6875 C27.76572093 10.39605884 26.84312743 8.5293823 26 6 C27.01320313 5.73445312 28.02640625 5.46890625 29.0703125 5.1953125 C30.42190177 4.83864311 31.77346278 4.48186657 33.125 4.125 C33.79015625 3.95097656 34.4553125 3.77695312 35.140625 3.59765625 C39.14797664 2.5368867 43.07952899 1.35567689 47 0 C46.33425896 4.95785631 44.28240414 9.14397812 42.2109375 13.640625 C41.82942535 14.48107361 41.44791321 15.32152222 41.05484009 16.18743896 C39.83316202 18.87723829 38.60463292 21.56382899 37.375 24.25 C30.47567615 39.35531468 30.47567615 39.35531468 23.9140625 54.609375 C23.61631927 55.31499573 23.31857605 56.02061646 23.0118103 56.74761963 C21.81293916 59.66307988 21 61.814944 21 65 C19.68870078 66.35500919 18.35308313 67.68671343 17 69 C15.76487921 71.13309192 15.76487921 71.13309192 15 73 C12.69 73 10.38 73 8 73 C7.74135162 72.20264435 7.48270325 71.4052887 7.21621704 70.58377075 C4.78001813 63.07717646 2.33801654 55.57250076 -0.11055565 48.06993294 C-1.36924513 44.21253715 -2.6256625 40.35443176 -3.87695312 36.49462891 C-5.08414283 32.77114412 -6.29721432 29.04962391 -7.51442337 25.32940292 C-7.97823606 23.90830006 -8.4399094 22.48649716 -8.89942551 21.06399918 C-9.5424065 19.07479852 -10.19288499 17.08820181 -10.84521484 15.10205078 C-11.21383636 13.96953888 -11.58245789 12.83702698 -11.96224976 11.67019653 C-12.83314881 8.89822786 -12.83314881 8.89822786 -15 7 C-17.06874034 6.3574765 -17.06874034 6.3574765 -19 6 C-19 5.34 -19 4.68 -19 4 C-17.44539063 3.81824219 -17.44539063 3.81824219 -15.859375 3.6328125 C-14.48953562 3.46392819 -13.11974651 3.29463589 -11.75 3.125 C-11.06808594 3.04636719 -10.38617188 2.96773437 -9.68359375 2.88671875 C-6.09303689 2.43354167 -3.107493 1.90614262 0 0 Z " fill="#4A91E7" transform="translate(385,604)"/>
<path d="M0 0 C0.33 0 0.66 0 1 0 C1.33 7.26 1.66 14.52 2 22 C3.32 20.68 4.64 19.36 6 18 C5.505 19.485 5.505 19.485 5 21 C11.1991682 19.7804915 16.84284173 18.04426975 22.71484375 15.70703125 C25 15 25 15 27 16 C20.61477478 22.35369324 13.27201939 28.75067749 3.85546875 29.125 C2.44201172 29.063125 2.44201172 29.063125 1 29 C-2.24565858 28.65944803 -2.24565858 28.65944803 -4.6875 31.5 C-5.450625 32.325 -6.21375 33.15 -7 34 C1.31652942 34.21570249 8.91035841 33.94092133 17 32 C18.99810662 31.65549886 20.99722415 31.31622777 23 31 C15.69588993 38.96503882 5.10828252 41.36058846 -5.328125 42.18359375 C-10.42175078 42.34394864 -10.42175078 42.34394864 -12.95703125 40.8359375 C-13.63121094 40.56007813 -14.30539062 40.28421875 -15 40 C-17.2193451 40.8426307 -17.2193451 40.8426307 -19.25 42.375 C-19.95640625 42.85710937 -20.6628125 43.33921875 -21.390625 43.8359375 C-21.92171875 44.22007812 -22.4528125 44.60421875 -23 45 C-16.08616486 47.13120646 -9.70118424 47.23698014 -2.5 47.125 C-1.39140625 47.11597656 -0.2828125 47.10695313 0.859375 47.09765625 C3.57314592 47.07426167 6.28645545 47.04148175 9 47 C1.26830717 53.04086948 -8.45298269 54.68682232 -18.09765625 54.40625 C-22.23001882 53.82783048 -24.67493963 52.47446353 -28 50 C-28 49.34 -28 48.68 -28 48 C-28.60328125 48.28875 -29.2065625 48.5775 -29.828125 48.875 C-30.62734375 49.24625 -31.4265625 49.6175 -32.25 50 C-33.03890625 50.37125 -33.8278125 50.7425 -34.640625 51.125 C-37 52 -37 52 -41 52 C-41 52.66 -41 53.32 -41 54 C-31.87831995 57.19258802 -22.62670909 59.90605579 -13 61 C-17.10008256 63.73338837 -20.30982464 63.3309631 -25.125 63.3125 C-25.94226563 63.32861328 -26.75953125 63.34472656 -27.6015625 63.36132812 C-34.34802155 63.36666551 -41.24755205 62.69979242 -46.24609375 57.796875 C-46.82488281 57.20390625 -47.40367187 56.6109375 -48 56 C-50.41666804 55.73444838 -50.41666804 55.73444838 -53.0625 56.25 C-58.82850363 56.95911101 -64.45093871 57.09925423 -70.25 57.0625 C-71.10859619 57.05831055 -71.96719238 57.05412109 -72.85180664 57.04980469 C-74.90123393 57.03736758 -76.95062579 57.01929327 -79 57 C-79 56.67 -79 56.34 -79 56 C-78.30962646 55.94465088 -77.61925293 55.88930176 -76.90795898 55.83227539 C-73.75095586 55.57790464 -70.59423062 55.3202296 -67.4375 55.0625 C-65.80844727 54.93198242 -65.80844727 54.93198242 -64.14648438 54.79882812 C-58.73140286 54.35442934 -53.3664217 53.85462383 -48 53 C-47.93039062 51.9790625 -47.86078125 50.958125 -47.7890625 49.90625 C-46.90079774 45.5088997 -45.16214463 42.87259786 -42.375 39.5 C-41.92785645 38.93901611 -41.48071289 38.37803223 -41.02001953 37.80004883 C-37.60790404 33.57980072 -33.9667687 29.70806639 -30 26 C-30 29.53086577 -30.78808782 30.52379215 -32.6875 33.4375 C-36.16483581 39.02932029 -38.62136533 44.87448947 -41 51 C-39.34224 50.32004762 -37.69890855 49.6048428 -36.0625 48.875 C-34.68771484 48.28332031 -34.68771484 48.28332031 -33.28515625 47.6796875 C-30.75085199 46.21105535 -30.75085199 46.21105535 -30.4921875 43.49609375 C-30.32976563 42.34238281 -30.16734375 41.18867188 -30 40 C-28.53408769 36.31026358 -26.79554028 32.75809772 -25.0625 29.1875 C-24.60681641 28.22134766 -24.15113281 27.25519531 -23.68164062 26.25976562 C-20.25941256 19.12970628 -20.25941256 19.12970628 -18 18 C-18.58359075 26.31616812 -20.73799414 34.01459326 -23 42 C-21.88625 41.34 -20.7725 40.68 -19.625 40 C-16.25 38 -16.25 38 -14 38 C-14.33 37.34 -14.66 36.68 -15 36 C-15.89571068 29.20539473 -14.76734383 23.28132882 -12.625 16.875 C-12.40376465 16.21153564 -12.1825293 15.54807129 -11.95458984 14.86450195 C-10.2742019 10.13710095 -10.2742019 10.13710095 -8 9 C-8 16.59 -8 24.18 -8 32 C-6.68 30.35 -5.36 28.7 -4 27 C-4.33 26.67 -4.66 26.34 -5 26 C-5.98025727 16.85093211 -2.76511282 8.60147594 0 0 Z " fill="#0B1E36" transform="translate(734,423)"/>
<path d="M0 0 C2.31128752 1.98110359 3.06484446 3.18012349 4.125 6.125 C5.64481456 9.16461444 5.64481456 9.16461444 8.12109375 9.5390625 C9.72418871 9.6775699 11.33265117 9.76517539 12.94140625 9.796875 C15 10 15 10 17 12 C16.48308594 12.37769531 15.96617187 12.75539063 15.43359375 13.14453125 C13.22361754 14.9912237 11.57785523 16.57952051 10 19 C9.68328631 22.81078083 10.19816758 26.27383756 11 30 C8.35260516 28.96058659 5.79590892 27.89795446 3.25 26.625 C-1.56811733 25.69843897 -4.79516513 27.73873325 -9 30 C-8.93039062 29.21496094 -8.86078125 28.42992187 -8.7890625 27.62109375 C-8.34460422 20.07574173 -8.34460422 20.07574173 -12 13.75 C-13.485 12.38875 -13.485 12.38875 -15 11 C-9.555 10.505 -9.555 10.505 -4 10 C-3.71125 9.0925 -3.4225 8.185 -3.125 7.25 C-2.23468224 4.67797092 -1.28505587 2.38653234 0 0 Z " fill="#08192E" transform="translate(644,460)"/>
<path d="M0 0 C4 1 4 1 6.140625 3.94140625 C6.85639433 5.14098262 7.5591527 6.34839984 8.25 7.5625 C8.61351562 8.17802734 8.97703125 8.79355469 9.3515625 9.42773438 C10.2456088 10.94526033 11.12431628 12.47180439 12 14 C12.54269531 13.07316406 13.08539063 12.14632812 13.64453125 11.19140625 C14.36672614 9.98149533 15.0894078 8.77187487 15.8125 7.5625 C16.16892578 6.95083984 16.52535156 6.33917969 16.89257812 5.70898438 C19.66015625 1.11328125 19.66015625 1.11328125 23 0 C23 8.25 23 16.5 23 25 C21.35 25 19.7 25 18 25 C17.67 21.04 17.34 17.08 17 13 C15.35 15.97 13.7 18.94 12 22 C11.01 22 10.02 22 9 22 C7.35 19.03 5.7 16.06 4 13 C3.67 16.96 3.34 20.92 3 25 C2.01 25 1.02 25 0 25 C0 16.75 0 8.5 0 0 Z " fill="#4A91E7" transform="translate(494,722)"/>
<path d="M0 0 C0.845625 -0.00773438 1.69125 -0.01546875 2.5625 -0.0234375 C5.43365432 0.4458858 6.83441027 1.48010899 9 3.375 C8.34 4.695 7.68 6.015 7 7.375 C6.01 7.375 5.02 7.375 4 7.375 C3.34 6.385 2.68 5.395 2 4.375 C-2.73405313 4.49706889 -2.73405313 4.49706889 -6.4375 7 C-7.23209722 10.35496605 -7.42263683 12.93352869 -7 16.375 C-5.0405988 19.5014113 -5.0405988 19.5014113 -2 21.375 C1.25038489 21.32107807 1.25038489 21.32107807 4 20.375 C4.33 18.065 4.66 15.755 5 13.375 C6.32 13.045 7.64 12.715 9 12.375 C9 16.665 9 20.955 9 25.375 C7.68 25.375 6.36 25.375 5 25.375 C4.67 24.715 4.34 24.055 4 23.375 C3.34 24.035 2.68 24.695 2 25.375 C-1.07736964 26.00377494 -3.92257992 25.99686209 -7 25.375 C-10.16913507 23.02226975 -11.75649649 20.10551052 -13 16.375 C-13.53923825 10.65907456 -12.63434458 7.81697671 -9 3.375 C-5.9862944 0.65751333 -4.04766632 -0.03702134 0 0 Z " fill="#4993E7" transform="translate(795,721.625)"/>
<path d="M0 0 C3.1225042 1.79377901 4.54716303 3.20214438 6.3125 6.3125 C7.5207935 11.03582913 7.50725922 14.68112602 5.75 19.25 C3.97458838 22.03993254 2.77882803 23.28235852 0 25 C-3.40135602 25.66367922 -6.59005468 25.6069482 -10 25 C-12.82424288 22.80977082 -14.41508603 21.16982793 -16 18 C-17.03037808 8.99155166 -17.03037808 8.99155166 -14.953125 4.9765625 C-10.57945733 -0.29756616 -6.52803779 -0.81318118 0 0 Z M-7 2 C-10.39291585 5.50236475 -11.71366653 8.24641123 -12.109375 13.00390625 C-11.88060658 17.17892989 -9.87418491 20.12581509 -7 23 C-3.99706929 23.06948565 -3.99706929 23.06948565 -1 22 C1.76215522 19.0537011 2.21867989 16.4080027 2.375 12.5 C2.21867989 8.5919973 1.76215522 5.9462989 -1 3 C-4.0957107 2.10792821 -4.0957107 2.10792821 -7 2 Z " fill="#4B91E7" transform="translate(345,722)"/>
<path d="M0 0 C13.71428571 0 13.71428571 0 19.875 5.75 C21.56268543 9.12537087 21.5251048 12.34614576 21 16 C19.12154533 20.59177808 16.45860742 22.88802807 12 25 C8.04 25 4.08 25 0 25 C0 16.75 0 8.5 0 0 Z M5 2 C3.79504091 2.98407311 3.79504091 2.98407311 3.88647461 4.85766602 C3.89171143 5.64842529 3.89694824 6.43918457 3.90234375 7.25390625 C3.90556641 8.10791016 3.90878906 8.96191406 3.91210938 9.84179688 C3.92048828 10.73962891 3.92886719 11.63746094 3.9375 12.5625 C3.94201172 13.46419922 3.94652344 14.36589844 3.95117188 15.29492188 C3.96299775 17.53001314 3.9794778 19.76497437 4 22 C8.1575621 22.91710098 8.1575621 22.91710098 12.25 22.25 C14.29017165 20.94895128 14.29017165 20.94895128 16 18 C16.69110826 13.25867589 16.62769108 9.23027452 14.4375 4.9375 C11.30333886 2.44624371 8.95669588 2.14930928 5 2 Z " fill="#4B91E7" transform="translate(725,722)"/>
<path d="M0 0 C1.65 0 3.3 0 5 0 C5.33 2.97 5.66 5.94 6 9 C6.90492188 8.00806641 6.90492188 8.00806641 7.828125 6.99609375 C8.62734375 6.15175781 9.4265625 5.30742188 10.25 4.4375 C11.43335938 3.16712891 11.43335938 3.16712891 12.640625 1.87109375 C13.41921875 1.25363281 14.1978125 0.63617187 15 0 C16.32 0.33 17.64 0.66 19 1 C15.7 4.3 12.4 7.6 9 11 C10.3303125 12.546875 10.3303125 12.546875 11.6875 14.125 C14.48878282 17.39205431 17.25289346 20.6873127 20 24 C17.80078125 24.77734375 17.80078125 24.77734375 15 25 C12.54296875 23.12890625 12.54296875 23.12890625 10.1875 20.5625 C9.39730469 19.71816406 8.60710938 18.87382813 7.79296875 18.00390625 C7.20128906 17.34261719 6.60960937 16.68132813 6 16 C5.67 18.97 5.34 21.94 5 25 C3.35 25 1.7 25 0 25 C0 16.75 0 8.5 0 0 Z " fill="#4B90E7" transform="translate(602,722)"/>
<path d="M0 0 C13.66666667 0 13.66666667 0 18 4 C18.61875 4.556875 19.2375 5.11375 19.875 5.6875 C21.702004 9.44300822 21.86256316 12.92678509 21 17 C18.68512503 20.92364027 16.35079777 23.54973408 12 25 C8.04 25 4.08 25 0 25 C0 16.75 0 8.5 0 0 Z M4 3 C3.91348389 4.41570123 3.89295096 5.835595 3.90234375 7.25390625 C3.90556641 8.10791016 3.90878906 8.96191406 3.91210938 9.84179688 C3.92048828 10.73962891 3.92886719 11.63746094 3.9375 12.5625 C3.94201172 13.46419922 3.94652344 14.36589844 3.95117188 15.29492188 C3.96299775 17.53001314 3.9794778 19.76497437 4 22 C8.40273224 22.91753034 8.40273224 22.91753034 12.75 22.125 C16.11107999 18.95064668 16.82860631 15.5575139 17 11 C15.61073231 6.83219694 13.92701115 4.0790059 10 2 C6.70255623 1.50922189 6.70255623 1.50922189 4 3 Z " fill="#4A91E7" transform="translate(960,722)"/>
<path d="M0 0 C10 0 10 0 13.125 1.0625 C15 3 15 3 15.5625 6.4375 C14.93285904 10.42522609 14.20800333 11.64117402 11 14 C10.34 14 9.68 14 9 14 C9.48210938 14.54269531 9.96421875 15.08539062 10.4609375 15.64453125 C11.09257813 16.35996094 11.72421875 17.07539062 12.375 17.8125 C13.00148438 18.52019531 13.62796875 19.22789062 14.2734375 19.95703125 C16 22 16 22 18 25 C15.4375 25.5 15.4375 25.5 12 25 C9.34123873 22.58004962 7.16196571 19.86556402 5 17 C4.67 19.64 4.34 22.28 4 25 C2.68 25 1.36 25 0 25 C0 16.75 0 8.5 0 0 Z M5 2 C3.74050951 3.03406673 3.74050951 3.03406673 3.90234375 5.28515625 C3.91394531 6.20167969 3.92554688 7.11820313 3.9375 8.0625 C3.94652344 8.98160156 3.95554687 9.90070312 3.96484375 10.84765625 C3.97644531 11.55792969 3.98804688 12.26820313 4 13 C7.23285484 12.0641736 8.67193589 11.51943484 10.5 8.625 C11.28451398 5.97057156 11.28451398 5.97057156 9.8125 3.6875 C8.04679495 1.65929074 8.04679495 1.65929074 5 2 Z " fill="#4B90E7" transform="translate(570,722)"/>
<path d="M0 0 C0.33 0 0.66 0 1 0 C1.06058594 1.13179688 1.12117187 2.26359375 1.18359375 3.4296875 C1.26799917 4.91147145 1.35264717 6.3932416 1.4375 7.875 C1.47681641 8.62136719 1.51613281 9.36773437 1.55664062 10.13671875 C1.71573624 14.19986864 1.71573624 14.19986864 3 18 C3.98742187 17.48308594 4.97484375 16.96617187 5.9921875 16.43359375 C7.28624345 15.76781134 8.58052612 15.10246946 9.875 14.4375 C10.52597656 14.09525391 11.17695312 13.75300781 11.84765625 13.40039062 C13.53529857 12.53917109 15.26579593 11.76313297 17 11 C17.66 11.33 18.32 11.66 19 12 C7.21430399 26.4511259 7.21430399 26.4511259 -1.5625 27.375 C-2.366875 27.25125 -3.17125 27.1275 -4 27 C-7.08041651 20.83916698 -5.11124832 12.51070597 -3.0625 6.3125 C-1.2195122 1.2195122 -1.2195122 1.2195122 0 0 Z " fill="#0A1D34" transform="translate(744,414)"/>
<path d="M0 0 C3.0625 2 3.0625 2 5 4 C4.67 4.99 4.34 5.98 4 7 C3.01 7.33 2.02 7.66 1 8 C-0.32 6.35 -1.64 4.7 -3 3 C-6.30133235 3.2676756 -7.62503298 3.5603835 -9.8125 6.125 C-11.77512024 10.87660689 -11.31828066 15.14149788 -10 20 C-3.83629549 21.18470607 -3.83629549 21.18470607 2.0625 19.5625 C2.701875 19.046875 3.34125 18.53125 4 18 C4.33 18.66 4.66 19.32 5 20 C2.73238447 23.02348737 1.37533971 24.70689482 -2.3828125 25.5078125 C-6.95434619 25.71250804 -9.2659458 25.55054065 -13 22.75 C-16.50920036 17.92484951 -17.41482481 15.15254678 -16.6171875 9.2578125 C-15.60588371 5.55823281 -13.72783164 3.66129916 -11 1 C-7.54765812 -0.72617094 -3.77455234 -0.50110436 0 0 Z " fill="#4A92E7" transform="translate(384,722)"/>
<path d="M0 0 C3 1 3 1 4.16674805 2.99365234 C4.52808838 3.84910645 4.88942871 4.70456055 5.26171875 5.5859375 C5.85629883 6.98199219 5.85629883 6.98199219 6.46289062 8.40625 C6.86701172 9.3859375 7.27113281 10.365625 7.6875 11.375 C8.31108398 12.83292969 8.31108398 12.83292969 8.94726562 14.3203125 C12 21.57870228 12 21.57870228 12 25 C10.35 24.67 8.7 24.34 7 24 C6.34 22.02 5.68 20.04 5 18 C1.7 18 -1.6 18 -5 18 C-5.66 20.31 -6.32 22.62 -7 25 C-7.99 25 -8.98 25 -10 25 C-9.40312656 21.58606481 -8.53891281 18.57936698 -7.1875 15.390625 C-6.83429688 14.55402344 -6.48109375 13.71742188 -6.1171875 12.85546875 C-5.74851562 11.99566406 -5.37984375 11.13585937 -5 10.25 C-4.44699219 8.93708984 -4.44699219 8.93708984 -3.8828125 7.59765625 C-1.13923518 1.13923518 -1.13923518 1.13923518 0 0 Z M0 8 C-2.28692024 11.23764755 -2.28692024 11.23764755 -3 15 C-1.02 15 0.96 15 3 15 C2.34 12.69 1.68 10.38 1 8 C0.67 8 0.34 8 0 8 Z " fill="#4A91E7" transform="translate(414,722)"/>
<path d="M0 0 C3 1 3 1 4.16674805 2.99365234 C4.52808838 3.84910645 4.88942871 4.70456055 5.26171875 5.5859375 C5.85629883 6.98199219 5.85629883 6.98199219 6.46289062 8.40625 C6.86701172 9.3859375 7.27113281 10.365625 7.6875 11.375 C8.31108398 12.83292969 8.31108398 12.83292969 8.94726562 14.3203125 C12 21.57870228 12 21.57870228 12 25 C9.625 24.8125 9.625 24.8125 7 24 C5.6875 21.4375 5.6875 21.4375 5 19 C1.7 18.67 -1.6 18.34 -5 18 C-5.144375 18.78375 -5.28875 19.5675 -5.4375 20.375 C-6 23 -6 23 -7 25 C-7.99 25 -8.98 25 -10 25 C-7.37589493 16.35588919 -3.68616238 8.23074615 0 0 Z M0 7 C-1.485 10.96 -1.485 10.96 -3 15 C-1.02 15 0.96 15 3 15 C2.45276317 11.62537285 1.9451 9.91765 0 7 Z " fill="#4A92E7" transform="translate(542,722)"/>
<path d="M0 0 C5.28 0 10.56 0 16 0 C13.75 6.75 13.75 6.75 11.8359375 10.0859375 C11.43632813 10.78847656 11.03671875 11.49101563 10.625 12.21484375 C10.00625 13.28412109 10.00625 13.28412109 9.375 14.375 C8.74464844 15.47908203 8.74464844 15.47908203 8.1015625 16.60546875 C7.07247236 18.4063765 6.03689244 20.20357318 5 22 C8.63 22.33 12.26 22.66 16 23 C16 23.66 16 24.32 16 25 C10.06 25 4.12 25 -2 25 C-0.69799397 21.74498493 0.53315948 18.84508726 2.1640625 15.79296875 C2.56367187 15.04208984 2.96328125 14.29121094 3.375 13.51757812 C3.7875 12.74865234 4.2 11.97972656 4.625 11.1875 C5.04523437 10.39923828 5.46546875 9.61097656 5.8984375 8.79882812 C6.9299946 6.86465856 7.96468554 4.93216094 9 3 C5.7 3 2.4 3 -1 3 C-0.67 2.01 -0.34 1.02 0 0 Z " fill="#4B90E7" transform="translate(898,722)"/>
<path d="M0 0 C4.62 0 9.24 0 14 0 C14 0.99 14 1.98 14 3 C11.03 3 8.06 3 5 3 C5 5.64 5 8.28 5 11 C7.31 11 9.62 11 12 11 C12 11.66 12 12.32 12 13 C9.69 13 7.38 13 5 13 C5 16.3 5 19.6 5 23 C7.97 23 10.94 23 14 23 C14 23.66 14 24.32 14 25 C9.38 25 4.76 25 0 25 C0 16.75 0 8.5 0 0 Z " fill="#4A90E7" transform="translate(637,722)"/>
<path d="M0 0 C6.93 0 13.86 0 21 0 C21 0.99 21 1.98 21 3 C18.36 3 15.72 3 13 3 C13 10.26 13 17.52 13 25 C11.35 25 9.7 25 8 25 C8 17.74 8 10.48 8 3 C5.36 3 2.72 3 0 3 C0 2.01 0 1.02 0 0 Z " fill="#4B90E7" transform="translate(666,722)"/>
<path d="M0 0 C0.33 0 0.66 0 1 0 C1.35756264 6.20626588 0.07472172 11.48847397 -1.625 17.4375 C-1.86089844 18.34048828 -2.09679687 19.24347656 -2.33984375 20.17382812 C-4.06961581 26.29899533 -6.42586697 31.45816381 -11 36 C-12.485 36.495 -12.485 36.495 -14 37 C-15.66710346 38.49985609 -15.66710346 38.49985609 -17 40 C-15.55648067 31.59797722 -11.91403343 24.93210432 -7.70800781 17.65722656 C-4.44670523 11.96621739 -1.86258462 6.31054789 0 0 Z " fill="#091B31" transform="translate(764,390)"/>
<path d="M0 0 C4.62 0 9.24 0 14 0 C14 0.99 14 1.98 14 3 C10.7 3 7.4 3 4 3 C4 5.64 4 8.28 4 11 C6.64 11 9.28 11 12 11 C12 11.66 12 12.32 12 13 C9.36 13 6.72 13 4 13 C4 16.3 4 19.6 4 23 C7.3 23 10.6 23 14 23 C14 23.66 14 24.32 14 25 C9.38 25 4.76 25 0 25 C0 16.75 0 8.5 0 0 Z " fill="#4B90E6" transform="translate(930,722)"/>
<path d="M0 0 C7.26 0 14.52 0 22 0 C22 0.99 22 1.98 22 3 C19.03 3 16.06 3 13 3 C13 10.26 13 17.52 13 25 C11.68 25 10.36 25 9 25 C9 17.74 9 10.48 9 3 C6.03 3 3.06 3 0 3 C0 2.01 0 1.02 0 0 Z " fill="#4A91E7" transform="translate(839,722)"/>
<path d="M0 0 C1.65 0 3.3 0 5 0 C5 7.59 5 15.18 5 23 C8.3 23 11.6 23 15 23 C15 23.66 15 24.32 15 25 C10.05 25 5.1 25 0 25 C0 16.75 0 8.5 0 0 Z " fill="#528FEA" transform="translate(441,722)"/>
<path d="M0 0 C1.65 0 3.3 0 5 0 C5 7.59 5 15.18 5 23 C8.3 23 11.6 23 15 23 C15 23.66 15 24.32 15 25 C10.05 25 5.1 25 0 25 C0 16.75 0 8.5 0 0 Z " fill="#4A91E7" transform="translate(299,722)"/>
<path d="M0 0 C1.65 0 3.3 0 5 0 C5 8.25 5 16.5 5 25 C3.35 25 1.7 25 0 25 C0 16.75 0 8.5 0 0 Z " fill="#4B8FE7" transform="translate(820,722)"/>
<path d="M0 0 C1.32 0 2.64 0 4 0 C4 8.25 4 16.5 4 25 C2.68 25 1.36 25 0 25 C0 16.75 0 8.5 0 0 Z " fill="#4B91E6" transform="translate(876,722)"/>
<path d="M0 0 C1.32 0 2.64 0 4 0 C4 8.25 4 16.5 4 25 C2.68 25 1.36 25 0 25 C0 16.75 0 8.5 0 0 Z " fill="#4B90E7" transform="translate(762,722)"/>
<path d="M0 0 C1.093125 0.0825 2.18625 0.165 3.3125 0.25 C3.3125 1.24 3.3125 2.23 3.3125 3.25 C-2.97321429 5.67857143 -2.97321429 5.67857143 -6.6875 4.25 C-4.79150483 0.68106792 -4.16790733 0.28256999 0 0 Z " fill="#4485D5" transform="translate(744.6875,439.75)"/>
<path d="M0 0 C0 3.99711412 -1.32141544 5.1042329 -4 8 C-6.75 9.8125 -6.75 9.8125 -9 11 C-7.59155282 7.78475695 -5.89655214 5.67816132 -3.375 3.25 C-2.74335937 2.63640625 -2.11171875 2.0228125 -1.4609375 1.390625 C-0.73777344 0.70226562 -0.73777344 0.70226562 0 0 Z " fill="#142F50" transform="translate(704,449)"/>
<path d="M0 0 C0.33 0 0.66 0 1 0 C1.08159574 4.16138263 0.98248524 7.9472484 0 12 C-0.99 11.34 -1.98 10.68 -3 10 C-2.01 6.7 -1.02 3.4 0 0 Z " fill="#132D4D" transform="translate(764,390)"/>
<path d="M0 0 C1.10844919 3.32534757 0.84454356 5.62182575 0 9 C-0.99 8.34 -1.98 7.68 -3 7 C-1.125 1.125 -1.125 1.125 0 0 Z " fill="#1A3960" transform="translate(715,441)"/>
</svg>
