<?xml version="1.0" encoding="UTF-8"?>
<svg version="1.1" xmlns="http://www.w3.org/2000/svg" width="429" height="320">
<path d="M0 0 C9.20685035 8.67470108 17.43045011 17.53193082 24.14013672 28.27734375 C24.53281738 28.9007666 24.92549805 29.52418945 25.33007812 30.16650391 C32.77160834 42.16887469 37.35270196 54.7306585 41.14013672 68.27734375 C44.11013672 68.60734375 47.08013672 68.93734375 50.14013672 69.27734375 C50.14013672 84.12734375 50.14013672 98.97734375 50.14013672 114.27734375 C47.17013672 114.27734375 44.20013672 114.27734375 41.14013672 114.27734375 C40.99318359 114.96957031 40.84623047 115.66179687 40.69482422 116.375 C32.2428885 153.24292648 6.64659709 183.40426597 -24.85986328 203.27734375 C-30.08449765 206.48487244 -35.42825995 209.43683014 -40.85986328 212.27734375 C-41.49375977 212.61330566 -42.12765625 212.94926758 -42.78076172 213.29541016 C-77.13709801 231.2619695 -116.0979612 237.73689891 -154.48486328 237.58984375 C-155.49899292 237.5876886 -156.51312256 237.58553345 -157.5579834 237.58331299 C-172.51672186 237.53232466 -187.14225998 237.2057266 -201.85986328 234.27734375 C-203.41809814 233.97135254 -203.41809814 233.97135254 -205.0078125 233.65917969 C-250.80619245 224.39567696 -296.819756 204.34121318 -325.85986328 166.27734375 C-326.51341797 165.46265625 -327.16697266 164.64796875 -327.84033203 163.80859375 C-338.78584049 149.65152892 -347.6581766 132.16321083 -349.85986328 114.27734375 C-352.49986328 114.27734375 -355.13986328 114.27734375 -357.85986328 114.27734375 C-357.85986328 99.42734375 -357.85986328 84.57734375 -357.85986328 69.27734375 C-355.21986328 69.27734375 -352.57986328 69.27734375 -349.85986328 69.27734375 C-349.78509766 68.74109375 -349.71033203 68.20484375 -349.63330078 67.65234375 C-344.25641111 35.60186415 -320.91412499 6.86070188 -295.17236328 -11.72265625 C-218.56783765 -65.66103502 -101.34752704 -70.05987026 0 0 Z M-293.85986328 -5.72265625 C-295.26558594 -4.64951172 -295.26558594 -4.64951172 -296.69970703 -3.5546875 C-319.8668312 14.69316209 -338.9812493 39.88427382 -344.85986328 69.27734375 C-335.28986328 69.27734375 -325.71986328 69.27734375 -315.85986328 69.27734375 C-313.38486328 63.83234375 -313.38486328 63.83234375 -310.85986328 58.27734375 C-294.65520821 25.28483265 -264.00555781 5.08329318 -230.19238281 -6.94238281 C-221.07721597 -10.05200319 -211.9062475 -12.59883509 -202.48486328 -14.59765625 C-201.58421143 -14.78875977 -200.68355957 -14.97986328 -199.75561523 -15.17675781 C-184.8490806 -18.11303472 -169.90016626 -19.10954667 -154.73486328 -19.03515625 C-153.93415405 -19.0330011 -153.13344482 -19.03084595 -152.30847168 -19.02862549 C-105.52949203 -18.82794197 -56.95659039 -5.98709873 -21.85986328 26.27734375 C-20.96525391 27.08945313 -20.07064453 27.9015625 -19.14892578 28.73828125 C-7.37002637 39.93729638 1.01785823 53.91050828 6.14013672 69.27734375 C15.71013672 69.27734375 25.28013672 69.27734375 35.14013672 69.27734375 C29.16101654 39.38174285 10.34302426 13.48682342 -13.85986328 -4.72265625 C-14.90529297 -5.521875 -15.95072266 -6.32109375 -17.02783203 -7.14453125 C-90.36400426 -62.07967941 -202.58248566 -61.70726119 -293.85986328 -5.72265625 Z M-352.85986328 74.27734375 C-352.85986328 85.82734375 -352.85986328 97.37734375 -352.85986328 109.27734375 C-335.36986328 109.27734375 -317.87986328 109.27734375 -299.85986328 109.27734375 C-299.85986328 97.72734375 -299.85986328 86.17734375 -299.85986328 74.27734375 C-317.34986328 74.27734375 -334.83986328 74.27734375 -352.85986328 74.27734375 Z M-7.85986328 74.27734375 C-7.85986328 85.82734375 -7.85986328 97.37734375 -7.85986328 109.27734375 C9.63013672 109.27734375 27.12013672 109.27734375 45.14013672 109.27734375 C45.14013672 97.72734375 45.14013672 86.17734375 45.14013672 74.27734375 C27.65013672 74.27734375 10.16013672 74.27734375 -7.85986328 74.27734375 Z M-344.85986328 114.27734375 C-342.36558742 124.5223687 -342.36558742 124.5223687 -338.67236328 134.15234375 C-338.37120605 134.82160889 -338.07004883 135.49087402 -337.75976562 136.18041992 C-332.49918365 147.63238535 -326.22862007 157.78892482 -317.85986328 167.27734375 C-317.13927734 168.11910156 -316.41869141 168.96085937 -315.67626953 169.828125 C-296.33793002 191.99310237 -271.12807391 206.88123052 -243.85986328 217.27734375 C-243.14427246 217.55030273 -242.42868164 217.82326172 -241.69140625 218.10449219 C-200.59072876 233.44495267 -152.01703814 237.67488494 -108.85986328 229.27734375 C-107.82732422 229.07866699 -106.79478516 228.87999023 -105.73095703 228.67529297 C-68.19771606 221.21002529 -32.24584907 206.44783797 -3.85986328 180.27734375 C-3.35793457 179.81924316 -2.85600586 179.36114258 -2.33886719 178.88916016 C15.29770846 162.61054991 29.16219416 141.68570828 35.14013672 118.27734375 C35.14013672 117.28734375 35.14013672 116.29734375 35.14013672 115.27734375 C25.57013672 115.27734375 16.00013672 115.27734375 6.14013672 115.27734375 C5.29451172 117.52546875 4.44888672 119.77359375 3.57763672 122.08984375 C-8.27068611 152.24297624 -35.92892221 173.25946354 -64.85986328 185.90234375 C-82.56391803 193.37290614 -100.88033747 198.38094576 -119.85986328 201.27734375 C-120.97796387 201.45305908 -120.97796387 201.45305908 -122.11865234 201.63232422 C-174.118095 209.44733648 -232.90168094 199.04658871 -275.80810547 167.81396484 C-294.65849096 153.69636296 -307.57153578 136.37955042 -315.85986328 114.27734375 C-325.42986328 114.27734375 -334.99986328 114.27734375 -344.85986328 114.27734375 Z M-309.85986328 114.27734375 C-309.52986328 115.59734375 -309.19986328 116.91734375 -308.85986328 118.27734375 C-307.1749003 117.30849003 -305.50807572 116.30747652 -303.85986328 115.27734375 C-303.85986328 114.94734375 -303.85986328 114.61734375 -303.85986328 114.27734375 C-305.83986328 114.27734375 -307.81986328 114.27734375 -309.85986328 114.27734375 Z M-3.85986328 114.27734375 C-2.86986328 115.26734375 -1.87986328 116.25734375 -0.85986328 117.27734375 C-0.19986328 116.94734375 0.46013672 116.61734375 1.14013672 116.27734375 C1.14013672 115.61734375 1.14013672 114.95734375 1.14013672 114.27734375 C-0.50986328 114.27734375 -2.15986328 114.27734375 -3.85986328 114.27734375 Z " fill="#4A90E6" transform="translate(367.85986328125,61.72265625)"/>
<path d="M0 0 C0.17042816 0.72231812 0.34085632 1.44463623 0.51644897 2.18884277 C2.33989706 9.72005814 4.53366414 17.05505867 6.9765625 24.40625 C7.34727875 25.53397827 7.717995 26.66170654 8.09994507 27.8236084 C9.27096549 31.38373763 10.44767595 34.94195094 11.625 38.5 C12.8084579 42.08693582 13.99070039 45.67426603 15.17147827 49.26208496 C15.90311558 51.48410788 16.63646829 53.70556688 17.37173462 55.9263916 C17.7023288 56.92843628 18.03292297 57.93048096 18.37353516 58.96289062 C18.6642691 59.84158813 18.95500305 60.72028564 19.25454712 61.62561035 C19.91791081 63.73853248 20.49070719 65.84546474 21 68 C24.75658595 60.70458595 28.22098821 53.29737669 31.50415039 45.77709961 C32.04516663 44.54588326 32.5930884 43.31767933 33.14770508 42.0925293 C36.94007716 33.70874582 39.64391067 27.25019844 37.23046875 18.07421875 C36.88628906 17.28660156 36.54210937 16.49898437 36.1875 15.6875 C35.85105469 14.88699219 35.51460937 14.08648437 35.16796875 13.26171875 C33.98019311 10.96164485 32.61295851 9.01966438 31 7 C31.72703125 6.91363281 32.4540625 6.82726562 33.203125 6.73828125 C40.21487235 5.7584345 46.15617931 3.95008131 52.6015625 1.0234375 C55 0 55 0 57 0 C55.58698062 4.50961801 53.82522471 8.76991927 51.83203125 13.046875 C51.18617233 14.44774211 50.5403402 15.84862157 49.89453125 17.24951172 C49.55502441 17.98296814 49.21551758 18.71642456 48.86572266 19.47210693 C47.06340826 23.3701236 45.27597551 27.27494912 43.48828125 31.1796875 C43.11990143 31.98419342 42.75152161 32.78869934 42.37197876 33.61758423 C38.71553482 41.60995307 35.08035952 49.61149073 31.50009155 57.63830566 C30.83617839 59.12314053 30.16890631 60.60647831 29.49819946 62.08825684 C28.56276898 64.15653417 27.63931409 66.22975918 26.71875 68.3046875 C26.19216797 69.48015137 25.66558594 70.65561523 25.12304688 71.86669922 C24.03945194 74.88992908 23.96428103 76.851922 24 80 C21.6875 82.5 21.6875 82.5 19 85 C18.54625 85.928125 18.0925 86.85625 17.625 87.8125 C17.08875 88.534375 16.5525 89.25625 16 90 C12.3984375 90.13671875 12.3984375 90.13671875 9 90 C8.40312378 88.15607666 8.40312378 88.15607666 7.79418945 86.27490234 C6.29597612 81.6484022 4.79498304 77.02280763 3.29321289 72.39746094 C2.64761525 70.40779233 2.0027393 68.41788937 1.35864258 66.42773438 C-1.95380646 56.19440309 -5.31290039 45.99932145 -8.9831543 35.88818359 C-10.34866406 32.00967686 -11.47655294 28.08877918 -12.5625 24.125 C-14.93220842 15.68824312 -14.93220842 15.68824312 -19 8 C-22.08601755 6.41150153 -22.08601755 6.41150153 -25 6 C-25 5.67 -25 5.34 -25 5 C-23.38931641 4.83564453 -23.38931641 4.83564453 -21.74609375 4.66796875 C-20.3098322 4.50838413 -18.87363767 4.34819558 -17.4375 4.1875 C-16.73302734 4.11724609 -16.02855469 4.04699219 -15.30273438 3.97460938 C-10.14028378 3.379857 -4.86497833 0 0 0 Z " fill="#07182C" transform="translate(201,83)"/>
<path d="M0 0 C2.41016019 2.41016019 2.89357695 4.27835642 4 7.5 C6.50562846 14.23901862 9.8295802 20.28418916 13.39404297 26.51513672 C16.4379756 31.8734263 18.93472125 37.17966898 21 43 C21 36.07 21 29.14 21 22 C23.99431292 24.99431292 24.79259269 28.60034142 26.125 32.5625 C26.40214844 33.33658203 26.67929688 34.11066406 26.96484375 34.90820312 C29.13152563 41.31752562 30.1787816 47.46365519 28 54 C28.95298777 55.36733028 29.95374591 56.70264493 31 58 C31 58.66 31 59.32 31 60 C31.66 60 32.32 60 33 60 C33 52.08 33 44.16 33 36 C38.46096323 44.19144485 39.61303692 54.37872616 39 64 C39 64.99 39 65.98 39 67 C41.4390706 69.20142332 41.4390706 69.20142332 44 71 C43.93941406 70.43603516 43.87882812 69.87207031 43.81640625 69.29101562 C43.53994962 66.69444994 43.26993901 64.09725103 43 61.5 C42.85691406 60.1696875 42.85691406 60.1696875 42.7109375 58.8125 C42.16485054 53.50765526 41.9003247 48.33262848 42 43 C45.14691241 46.54373714 46.38113018 50.5365698 47.6875 55 C47.9153418 55.75385986 48.14318359 56.50771973 48.37792969 57.28442383 C49.69590193 61.94736997 50.14798219 65.80762603 49.75 70.6875 C49.47311962 73.47722582 49.47311962 73.47722582 50 76 C52.65458329 78.76432 55.52566928 80.42827896 59 82 C58.72285156 81.04480469 58.44570312 80.08960938 58.16015625 79.10546875 C55.98020433 71.3946388 54.3348295 64.0526495 54 56 C58.04395227 59.63801551 59.87557033 64.41506576 62.1875 69.25 C62.65091797 70.17941406 63.11433594 71.10882813 63.59179688 72.06640625 C66.1121024 77.31487756 67.62068787 81.16392182 67 87 C70.63 87.99 74.26 88.98 78 90 C74.20880407 80.95945585 70.39946578 72.22775738 65 64 C73.58935548 67.47523348 81.83716008 78.90346732 86 87 C86.495 90.465 86.495 90.465 87 94 C103.335 94.99 103.335 94.99 120 96 C120 96.33 120 96.66 120 97 C116.20840036 97.05886171 112.41692081 97.09388224 108.625 97.125 C107.56410156 97.14175781 106.50320312 97.15851563 105.41015625 97.17578125 C98.68730739 97.21702572 92.52888452 96.62170836 86 95 C85.72414063 95.62648438 85.44828125 96.25296875 85.1640625 96.8984375 C82.92490086 100.94095079 78.65278226 101.80409382 74.43359375 103.0703125 C69.51778242 104.26253801 64.72358285 104.2946 59.6875 104.25 C58.34848633 104.26160156 58.34848633 104.26160156 56.98242188 104.2734375 C56.12583984 104.27085937 55.26925781 104.26828125 54.38671875 104.265625 C53.61545654 104.26336914 52.84419434 104.26111328 52.04956055 104.25878906 C50 104 50 104 47 102 C48.00417969 101.84144531 49.00835937 101.68289062 50.04296875 101.51953125 C58.30619651 100.13606737 65.68853104 98.27928228 73.42578125 94.98828125 C76 94 76 94 79 94 C79 93.34 79 92.68 79 92 C78.195625 91.9175 77.39125 91.835 76.5625 91.75 C72.04065795 90.79803325 68.15297299 88.98419821 64 87 C63.95875 87.598125 63.9175 88.19625 63.875 88.8125 C63 91 63 91 60.4140625 92.72265625 C49.30274114 96.87986687 37.30963953 93.74717707 26.9296875 89.06640625 C25.59862713 88.419449 24.29371597 87.7187311 23 87 C26.43820726 85.85393091 27.51834229 86.29211109 31 87 C33.74195196 87.11945687 36.44616011 87.18992409 39.1875 87.1875 C40.31273071 87.1884668 40.31273071 87.1884668 41.46069336 87.18945312 C47.14795534 87.135528 52.49951109 86.51364805 58 85 C54.80009492 82.25722422 51.99500618 80.3697164 48 79 C47.34 79.66 46.68 80.32 46 81 C32.74484969 83.17861467 18.67905499 77.47020433 8 70 C10.82221788 68.58889106 12.20255104 69.47745673 15.1875 70.375 C24.23458425 72.93483392 32.63306425 73.1169243 42 73 C39.69 70.69 37.38 68.38 35 66 C34.01 66.495 34.01 66.495 33 67 C22.21849173 67.32530413 14.18505025 61.65763354 6.6171875 54.57421875 C5.81667969 53.79498047 5.81667969 53.79498047 5 53 C5.99 52.505 5.99 52.505 7 52 C9.06784527 52.72052399 11.10602806 53.52712547 13.125 54.375 C18.21791029 56.41555562 22.5402943 57.67884084 28 58 C27.34 57.01 26.68 56.02 26 55 C24.989375 54.9175 23.97875 54.835 22.9375 54.75 C14.44906891 53.8518465 7.55489524 44.82734242 2 39 C2.33 38.34 2.66 37.68 3 37 C8.28 39.64 13.56 42.28 19 45 C18.34 43.02 17.68 41.04 17 39 C15.67511887 38.63451555 14.33981486 38.3062434 13 38 C8.9126529 33.73579654 6.74286498 29.72626394 4.8125 24.1875 C4.55839355 23.48117432 4.30428711 22.77484863 4.04248047 22.04711914 C1.45611981 14.71348085 -0.33343477 7.83571719 0 0 Z " fill="#0A1D35" transform="translate(89,137)"/>
<path d="M0 0 C0.33 0 0.66 0 1 0 C1.33 7.26 1.66 14.52 2 22 C3.32 20.68 4.64 19.36 6 18 C5.505 19.485 5.505 19.485 5 21 C11.1991682 19.7804915 16.84284173 18.04426975 22.71484375 15.70703125 C25 15 25 15 27 16 C20.61477478 22.35369324 13.27201939 28.75067749 3.85546875 29.125 C2.44201172 29.063125 2.44201172 29.063125 1 29 C-2.24565858 28.65944803 -2.24565858 28.65944803 -4.6875 31.5 C-5.450625 32.325 -6.21375 33.15 -7 34 C1.31652942 34.21570249 8.91035841 33.94092133 17 32 C18.99810662 31.65549886 20.99722415 31.31622777 23 31 C15.69588993 38.96503882 5.10828252 41.36058846 -5.328125 42.18359375 C-10.42175078 42.34394864 -10.42175078 42.34394864 -12.95703125 40.8359375 C-13.63121094 40.56007812 -14.30539062 40.28421875 -15 40 C-17.2193451 40.8426307 -17.2193451 40.8426307 -19.25 42.375 C-19.95640625 42.85710937 -20.6628125 43.33921875 -21.390625 43.8359375 C-21.92171875 44.22007812 -22.4528125 44.60421875 -23 45 C-16.08616486 47.13120646 -9.70118424 47.23698014 -2.5 47.125 C-1.39140625 47.11597656 -0.2828125 47.10695312 0.859375 47.09765625 C3.57314592 47.07426167 6.28645545 47.04148175 9 47 C1.26830717 53.04086948 -8.45298269 54.68682232 -18.09765625 54.40625 C-22.23001882 53.82783048 -24.67493963 52.47446353 -28 50 C-28 49.34 -28 48.68 -28 48 C-28.60328125 48.28875 -29.2065625 48.5775 -29.828125 48.875 C-30.62734375 49.24625 -31.4265625 49.6175 -32.25 50 C-33.03890625 50.37125 -33.8278125 50.7425 -34.640625 51.125 C-37 52 -37 52 -41 52 C-41 52.66 -41 53.32 -41 54 C-31.87831995 57.19258802 -22.62670909 59.90605579 -13 61 C-17.10008256 63.73338837 -20.30982464 63.3309631 -25.125 63.3125 C-25.94226563 63.32861328 -26.75953125 63.34472656 -27.6015625 63.36132812 C-34.34802155 63.36666551 -41.24755205 62.69979242 -46.24609375 57.796875 C-46.82488281 57.20390625 -47.40367187 56.6109375 -48 56 C-50.41666804 55.73444838 -50.41666804 55.73444838 -53.0625 56.25 C-58.82850363 56.95911101 -64.45093871 57.09925423 -70.25 57.0625 C-71.10859619 57.05831055 -71.96719238 57.05412109 -72.85180664 57.04980469 C-74.90123393 57.03736758 -76.95062579 57.01929327 -79 57 C-79 56.67 -79 56.34 -79 56 C-78.30962646 55.94465088 -77.61925293 55.88930176 -76.90795898 55.83227539 C-73.75095586 55.57790464 -70.59423062 55.3202296 -67.4375 55.0625 C-65.80844727 54.93198242 -65.80844727 54.93198242 -64.14648438 54.79882812 C-58.73140286 54.35442934 -53.3664217 53.85462383 -48 53 C-47.93039062 51.9790625 -47.86078125 50.958125 -47.7890625 49.90625 C-46.90079774 45.5088997 -45.16214463 42.87259786 -42.375 39.5 C-41.92785645 38.93901611 -41.48071289 38.37803223 -41.02001953 37.80004883 C-37.60790404 33.57980072 -33.9667687 29.70806639 -30 26 C-30 29.53086577 -30.78808782 30.52379215 -32.6875 33.4375 C-36.16483581 39.02932029 -38.62136533 44.87448947 -41 51 C-39.34224 50.32004762 -37.69890855 49.6048428 -36.0625 48.875 C-34.68771484 48.28332031 -34.68771484 48.28332031 -33.28515625 47.6796875 C-30.75085199 46.21105535 -30.75085199 46.21105535 -30.4921875 43.49609375 C-30.32976562 42.34238281 -30.16734375 41.18867188 -30 40 C-28.53408769 36.31026358 -26.79554028 32.75809772 -25.0625 29.1875 C-24.60681641 28.22134766 -24.15113281 27.25519531 -23.68164062 26.25976562 C-20.25941256 19.12970628 -20.25941256 19.12970628 -18 18 C-18.58359075 26.31616812 -20.73799414 34.01459326 -23 42 C-21.88625 41.34 -20.7725 40.68 -19.625 40 C-16.25 38 -16.25 38 -14 38 C-14.33 37.34 -14.66 36.68 -15 36 C-15.89571068 29.20539473 -14.76734383 23.28132882 -12.625 16.875 C-12.40376465 16.21153564 -12.1825293 15.54807129 -11.95458984 14.86450195 C-10.2742019 10.13710095 -10.2742019 10.13710095 -8 9 C-8 16.59 -8 24.18 -8 32 C-6.68 30.35 -5.36 28.7 -4 27 C-4.33 26.67 -4.66 26.34 -5 26 C-5.98025727 16.85093211 -2.76511282 8.60147594 0 0 Z " fill="#0B1E36" transform="translate(308,178)"/>
<path d="M0 0 C2.31128752 1.98110359 3.06484446 3.18012349 4.125 6.125 C5.64481456 9.16461444 5.64481456 9.16461444 8.12109375 9.5390625 C9.72418871 9.6775699 11.33265117 9.76517539 12.94140625 9.796875 C15 10 15 10 17 12 C16.48308594 12.37769531 15.96617187 12.75539062 15.43359375 13.14453125 C13.22361754 14.9912237 11.57785523 16.57952051 10 19 C9.68328631 22.81078083 10.19816758 26.27383756 11 30 C8.35260516 28.96058659 5.79590892 27.89795446 3.25 26.625 C-1.56811733 25.69843897 -4.79516513 27.73873325 -9 30 C-8.93039063 29.21496094 -8.86078125 28.42992187 -8.7890625 27.62109375 C-8.34460422 20.07574173 -8.34460422 20.07574173 -12 13.75 C-13.485 12.38875 -13.485 12.38875 -15 11 C-9.555 10.505 -9.555 10.505 -4 10 C-3.71125 9.0925 -3.4225 8.185 -3.125 7.25 C-2.23468224 4.67797092 -1.28505587 2.38653234 0 0 Z " fill="#08192E" transform="translate(218,215)"/>
<path d="M0 0 C0.33 0 0.66 0 1 0 C1.06058594 1.13179687 1.12117188 2.26359375 1.18359375 3.4296875 C1.26799917 4.91147145 1.35264717 6.3932416 1.4375 7.875 C1.47681641 8.62136719 1.51613281 9.36773437 1.55664062 10.13671875 C1.71573624 14.19986864 1.71573624 14.19986864 3 18 C3.98742187 17.48308594 4.97484375 16.96617187 5.9921875 16.43359375 C7.28624345 15.76781134 8.58052612 15.10246946 9.875 14.4375 C10.52597656 14.09525391 11.17695313 13.75300781 11.84765625 13.40039062 C13.53529857 12.53917109 15.26579593 11.76313297 17 11 C17.66 11.33 18.32 11.66 19 12 C7.21430399 26.4511259 7.21430399 26.4511259 -1.5625 27.375 C-2.366875 27.25125 -3.17125 27.1275 -4 27 C-7.08041651 20.83916698 -5.11124832 12.51070597 -3.0625 6.3125 C-1.2195122 1.2195122 -1.2195122 1.2195122 0 0 Z " fill="#0A1D34" transform="translate(318,169)"/>
<path d="M0 0 C0.33 0 0.66 0 1 0 C1.35756264 6.20626588 0.07472172 11.48847397 -1.625 17.4375 C-1.86089844 18.34048828 -2.09679687 19.24347656 -2.33984375 20.17382812 C-4.06961581 26.29899533 -6.42586697 31.45816381 -11 36 C-12.485 36.495 -12.485 36.495 -14 37 C-15.66710346 38.49985609 -15.66710346 38.49985609 -17 40 C-15.55648067 31.59797722 -11.91403343 24.93210432 -7.70800781 17.65722656 C-4.44670523 11.96621739 -1.86258462 6.31054789 0 0 Z " fill="#091B31" transform="translate(338,145)"/>
<path d="M0 0 C1.093125 0.0825 2.18625 0.165 3.3125 0.25 C3.3125 1.24 3.3125 2.23 3.3125 3.25 C-2.97321429 5.67857143 -2.97321429 5.67857143 -6.6875 4.25 C-4.79150483 0.68106792 -4.16790733 0.28256999 0 0 Z " fill="#4485D5" transform="translate(318.6875,194.75)"/>
<path d="M0 0 C0 3.99711412 -1.32141544 5.1042329 -4 8 C-6.75 9.8125 -6.75 9.8125 -9 11 C-7.59155282 7.78475695 -5.89655214 5.67816132 -3.375 3.25 C-2.74335938 2.63640625 -2.11171875 2.0228125 -1.4609375 1.390625 C-0.73777344 0.70226562 -0.73777344 0.70226562 0 0 Z " fill="#142F50" transform="translate(278,204)"/>
<path d="M0 0 C0.33 0 0.66 0 1 0 C1.08159574 4.16138263 0.98248524 7.9472484 0 12 C-0.99 11.34 -1.98 10.68 -3 10 C-2.01 6.7 -1.02 3.4 0 0 Z " fill="#132D4D" transform="translate(338,145)"/>
<path d="M0 0 C1.10844919 3.32534757 0.84454356 5.62182575 0 9 C-0.99 8.34 -1.98 7.68 -3 7 C-1.125 1.125 -1.125 1.125 0 0 Z " fill="#1A3960" transform="translate(289,196)"/>
</svg>
